<mxfile host="app.diagrams.net" modified="2024-03-14T07:13:54.120Z" agent="Mozilla/5.0 (Windows NT 10.0; Win64; x64) AppleWebKit/537.36 (KHTML, like Gecko) Chrome/122.0.0.0 Safari/537.36" etag="mOL0jj_PPKuTaE1Z2UWj" version="23.0.2" type="device">
  <diagram name="페이지-1" id="CmT6afuvSMBr1d7aASd5">
    <mxGraphModel dx="1149" dy="633" grid="1" gridSize="10" guides="1" tooltips="1" connect="1" arrows="1" fold="1" page="1" pageScale="1" pageWidth="4681" pageHeight="3300" math="0" shadow="0">
      <root>
        <mxCell id="0" />
        <mxCell id="1" parent="0" />
        <mxCell id="dsyV9Cvy4AKaVDLlsIf6-7" style="rounded=0;orthogonalLoop=1;jettySize=auto;html=1;" edge="1" parent="1" source="dsyV9Cvy4AKaVDLlsIf6-1" target="dsyV9Cvy4AKaVDLlsIf6-3">
          <mxGeometry relative="1" as="geometry" />
        </mxCell>
        <mxCell id="dsyV9Cvy4AKaVDLlsIf6-8" style="rounded=0;orthogonalLoop=1;jettySize=auto;html=1;" edge="1" parent="1" source="dsyV9Cvy4AKaVDLlsIf6-1" target="dsyV9Cvy4AKaVDLlsIf6-4">
          <mxGeometry relative="1" as="geometry" />
        </mxCell>
        <mxCell id="dsyV9Cvy4AKaVDLlsIf6-9" style="rounded=0;orthogonalLoop=1;jettySize=auto;html=1;" edge="1" parent="1" source="dsyV9Cvy4AKaVDLlsIf6-1" target="dsyV9Cvy4AKaVDLlsIf6-5">
          <mxGeometry relative="1" as="geometry" />
        </mxCell>
        <mxCell id="dsyV9Cvy4AKaVDLlsIf6-10" style="rounded=0;orthogonalLoop=1;jettySize=auto;html=1;" edge="1" parent="1" source="dsyV9Cvy4AKaVDLlsIf6-1" target="dsyV9Cvy4AKaVDLlsIf6-6">
          <mxGeometry relative="1" as="geometry" />
        </mxCell>
        <mxCell id="dsyV9Cvy4AKaVDLlsIf6-1" value="주소록" style="rounded=1;arcSize=10;whiteSpace=wrap;html=1;align=center;" vertex="1" parent="1">
          <mxGeometry x="290" y="340" width="100" height="40" as="geometry" />
        </mxCell>
        <mxCell id="dsyV9Cvy4AKaVDLlsIf6-13" style="rounded=0;orthogonalLoop=1;jettySize=auto;html=1;" edge="1" parent="1" source="dsyV9Cvy4AKaVDLlsIf6-2" target="dsyV9Cvy4AKaVDLlsIf6-11">
          <mxGeometry relative="1" as="geometry" />
        </mxCell>
        <mxCell id="dsyV9Cvy4AKaVDLlsIf6-2" value="취미" style="rounded=1;arcSize=10;whiteSpace=wrap;html=1;align=center;" vertex="1" parent="1">
          <mxGeometry x="720" y="340" width="100" height="40" as="geometry" />
        </mxCell>
        <mxCell id="dsyV9Cvy4AKaVDLlsIf6-3" value="CODE" style="ellipse;whiteSpace=wrap;html=1;align=center;fontStyle=4;" vertex="1" parent="1">
          <mxGeometry x="150" y="470" width="100" height="40" as="geometry" />
        </mxCell>
        <mxCell id="dsyV9Cvy4AKaVDLlsIf6-4" value="이름" style="ellipse;whiteSpace=wrap;html=1;align=center;" vertex="1" parent="1">
          <mxGeometry x="260" y="470" width="100" height="40" as="geometry" />
        </mxCell>
        <mxCell id="dsyV9Cvy4AKaVDLlsIf6-5" value="전화번호" style="ellipse;whiteSpace=wrap;html=1;align=center;" vertex="1" parent="1">
          <mxGeometry x="370" y="470" width="100" height="40" as="geometry" />
        </mxCell>
        <mxCell id="dsyV9Cvy4AKaVDLlsIf6-6" value="주소" style="ellipse;whiteSpace=wrap;html=1;align=center;" vertex="1" parent="1">
          <mxGeometry x="480" y="470" width="100" height="40" as="geometry" />
        </mxCell>
        <mxCell id="dsyV9Cvy4AKaVDLlsIf6-11" value="취미코드" style="ellipse;whiteSpace=wrap;html=1;align=center;fontStyle=4;" vertex="1" parent="1">
          <mxGeometry x="630" y="470" width="100" height="40" as="geometry" />
        </mxCell>
        <mxCell id="dsyV9Cvy4AKaVDLlsIf6-12" value="취미명" style="ellipse;whiteSpace=wrap;html=1;align=center;" vertex="1" parent="1">
          <mxGeometry x="800" y="470" width="100" height="40" as="geometry" />
        </mxCell>
        <mxCell id="dsyV9Cvy4AKaVDLlsIf6-14" style="rounded=0;orthogonalLoop=1;jettySize=auto;html=1;entryX=0.408;entryY=0.009;entryDx=0;entryDy=0;entryPerimeter=0;" edge="1" parent="1" source="dsyV9Cvy4AKaVDLlsIf6-2" target="dsyV9Cvy4AKaVDLlsIf6-12">
          <mxGeometry relative="1" as="geometry" />
        </mxCell>
        <mxCell id="dsyV9Cvy4AKaVDLlsIf6-15" value="주소-취미" style="shape=rhombus;perimeter=rhombusPerimeter;whiteSpace=wrap;html=1;align=center;" vertex="1" parent="1">
          <mxGeometry x="480" y="170" width="120" height="60" as="geometry" />
        </mxCell>
        <mxCell id="dsyV9Cvy4AKaVDLlsIf6-17" value="" style="edgeStyle=entityRelationEdgeStyle;fontSize=12;html=1;endArrow=ERzeroToMany;startArrow=ERzeroToOne;rounded=0;entryX=0;entryY=0.5;entryDx=0;entryDy=0;" edge="1" parent="1" source="dsyV9Cvy4AKaVDLlsIf6-1" target="dsyV9Cvy4AKaVDLlsIf6-15">
          <mxGeometry width="100" height="100" relative="1" as="geometry">
            <mxPoint x="540" y="380" as="sourcePoint" />
            <mxPoint x="640" y="280" as="targetPoint" />
          </mxGeometry>
        </mxCell>
        <mxCell id="dsyV9Cvy4AKaVDLlsIf6-18" value="" style="edgeStyle=entityRelationEdgeStyle;fontSize=12;html=1;endArrow=ERzeroToMany;startArrow=ERzeroToOne;rounded=0;entryX=1;entryY=0.5;entryDx=0;entryDy=0;exitX=0;exitY=0.5;exitDx=0;exitDy=0;" edge="1" parent="1" source="dsyV9Cvy4AKaVDLlsIf6-2" target="dsyV9Cvy4AKaVDLlsIf6-15">
          <mxGeometry width="100" height="100" relative="1" as="geometry">
            <mxPoint x="400" y="370" as="sourcePoint" />
            <mxPoint x="490" y="210" as="targetPoint" />
          </mxGeometry>
        </mxCell>
        <mxCell id="dsyV9Cvy4AKaVDLlsIf6-20" value="주소 취미 개념적 모델링" style="text;strokeColor=none;fillColor=none;html=1;fontSize=24;fontStyle=1;verticalAlign=middle;align=center;" vertex="1" parent="1">
          <mxGeometry x="480" y="90" width="100" height="40" as="geometry" />
        </mxCell>
        <UserObject label="0..1" placeholders="1" name="Variable" id="dsyV9Cvy4AKaVDLlsIf6-22">
          <mxCell style="text;html=1;strokeColor=none;fillColor=none;align=center;verticalAlign=middle;whiteSpace=wrap;overflow=hidden;" vertex="1" parent="1">
            <mxGeometry x="340" y="310" width="80" height="20" as="geometry" />
          </mxCell>
        </UserObject>
        <UserObject label="N" placeholders="1" name="Variable" id="dsyV9Cvy4AKaVDLlsIf6-23">
          <mxCell style="text;html=1;strokeColor=none;fillColor=none;align=center;verticalAlign=middle;whiteSpace=wrap;overflow=hidden;" vertex="1" parent="1">
            <mxGeometry x="400" y="170" width="80" height="20" as="geometry" />
          </mxCell>
        </UserObject>
        <UserObject label="M" placeholders="1" name="Variable" id="dsyV9Cvy4AKaVDLlsIf6-24">
          <mxCell style="text;html=1;strokeColor=none;fillColor=none;align=center;verticalAlign=middle;whiteSpace=wrap;overflow=hidden;" vertex="1" parent="1">
            <mxGeometry x="610" y="170" width="80" height="20" as="geometry" />
          </mxCell>
        </UserObject>
        <UserObject label="0..1" placeholders="1" name="Variable" id="dsyV9Cvy4AKaVDLlsIf6-25">
          <mxCell style="text;html=1;strokeColor=none;fillColor=none;align=center;verticalAlign=middle;whiteSpace=wrap;overflow=hidden;" vertex="1" parent="1">
            <mxGeometry x="670" y="310" width="80" height="20" as="geometry" />
          </mxCell>
        </UserObject>
      </root>
    </mxGraphModel>
  </diagram>
</mxfile>
